<?xml version="1.0" encoding="UTF-8" standalone="no"?>
<!-- Created with Inkscape (http://www.inkscape.org/) -->

<svg
   width="16"
   height="16"
   viewBox="0 0 4.2333328 4.2333328"
   version="1.1"
   id="svg1199"
   xmlns="http://www.w3.org/2000/svg"
   xmlns:svg="http://www.w3.org/2000/svg">
  <defs
     id="defs1196" />
  <g
     id="layer1">
    <path
       id="path912"
       style="fill:#ffffff;stroke-width:12.9722;stroke-linecap:round"
       d="M 2.1166468,1.8761573e-8 A 2.1166414,2.1166414 0 0 0 0.98390829,0.33898798 C 1.1862099,0.63749643 1.4922222,1.0209319 1.9678166,1.4965262 2.5098421,1.2537611 3.1986819,1.1068348 3.9687048,1.091395 A 2.1166414,2.1166414 0 0 0 2.1166468,1.8761573e-8 Z M 0.57877711,0.66972005 A 2.1166414,2.1166414 0 0 0 0,2.1166468 2.1166414,2.1166414 0 0 0 0.70279164,3.6875881 C 1.2780648,3.6023092 2.7726934,3.2583772 1.5047981,2.0174256 0.97856435,1.5023757 0.70920756,1.0422852 0.57876111,0.66971365 Z M 4.1092695,1.3890395 C 3.4524773,1.4746385 2.8601804,1.6524924 2.4143025,1.9099293 3.3349155,2.7834549 3.4709299,3.2263296 3.4312824,3.7702576 A 2.1166414,2.1166414 0 0 0 4.2332888,2.1166324 2.1166414,2.1166414 0 0 0 4.1092903,1.3890411 Z" />
  </g>
</svg>
