<?xml version="1.0" encoding="UTF-8" standalone="no"?>
<!-- Created with Inkscape (http://www.inkscape.org/) -->

<svg
   width="25"
   height="25"
   viewBox="0 0 25 25"
   version="1.1"
   id="svg1"
   xml:space="preserve"
   xmlns="http://www.w3.org/2000/svg"
   xmlns:svg="http://www.w3.org/2000/svg"><defs
     id="defs1" /><g
     id="layer1"><path
       id="path35"
       style="stroke:none;stroke-width:0.89952756;fill:#a2a2a2;stroke-dasharray:none;color:#000000;fill-opacity:1"
       d="M 11.226085 21.069767 C 11.114027 21.275046 11.050051 21.508892 11.050051 21.75748 C 11.050051 22.552961 11.704081 23.20779 12.499562 23.20779 C 13.295043 23.20779 13.949872 22.55376 13.949872 21.758279 C 13.949872 20.962799 13.295842 20.307969 12.500361 20.307969 C 11.953468 20.307969 11.472613 20.618155 11.226085 21.069767 z "
       transform="rotate(60,12.5,12.5)" /><path
       id="path19"
       style="stroke:none;stroke-width:0.89952756;fill:#bebebe;stroke-dasharray:none;color:#000000;fill-opacity:1"
       d="M 12.5 20.308594 C 11.704519 20.308594 11.050781 20.962332 11.050781 21.757812 C 11.050781 22.553294 11.704519 23.207031 12.5 23.207031 C 13.295481 23.207031 13.949219 22.553294 13.949219 21.757812 C 13.949219 20.962332 13.295481 20.308594 12.5 20.308594 z " /><path
       id="path37"
       style="stroke:none;stroke-width:0.89952756;fill:#5e5e5e;stroke-dasharray:none;color:#000000;fill-opacity:1"
       d="M -11.811849 1.9682439 C -12.017128 1.8561858 -12.250974 1.7922098 -12.499562 1.7922097 C -13.295043 1.7922097 -13.949872 2.4462398 -13.949872 3.241721 C -13.949872 4.0372022 -13.295842 4.6920315 -12.500361 4.6920314 C -11.70488 4.6920314 -11.050051 4.0380013 -11.050051 3.2425201 C -11.050051 2.6956268 -11.360236 2.2147718 -11.811849 1.9682439 z "
       transform="rotate(-30,0,-34.150635)" /><path
       id="path33"
       style="stroke:none;stroke-width:0.89952756;fill:#e4e4e4;stroke-dasharray:none;color:#000000;fill-opacity:1"
       d="M 11.226162 2.5540083 C 11.114104 2.7592869 11.050128 2.9931331 11.050128 3.241721 C 11.050128 4.0372022 11.704158 4.6920315 12.499639 4.6920314 C 13.29512 4.6920314 13.949949 4.0380013 13.949949 3.2425201 C 13.949949 2.4470389 13.295919 1.7922098 12.500438 1.7922097 C 11.953545 1.7922097 11.47269 2.1023955 11.226162 2.5540083 z "
       transform="rotate(60,12.5,12.5)" /><path
       id="path31"
       style="stroke:none;stroke-width:0.89952756;fill:#c9c9c9;stroke-dasharray:none;color:#000000;fill-opacity:1"
       d="M 13.738759 21.008875 C 13.483514 20.590494 13.021674 20.307969 12.499639 20.307969 C 11.704158 20.307969 11.050128 20.962799 11.050128 21.758279 C 11.050128 22.55376 11.704957 23.20779 12.500438 23.20779 C 13.295919 23.20779 13.949949 22.552961 13.949949 21.75748 C 13.949949 21.484034 13.872459 21.228026 13.738759 21.008875 z "
       transform="rotate(-60,12.5,12.5)" /><path
       id="path17"
       style="stroke:none;stroke-width:0.89952756;fill:#444444;stroke-dasharray:none;color:#000000;fill-opacity:1"
       d="M 12.5 1.7929688 C 11.704519 1.7929688 11.050781 2.4467063 11.050781 3.2421875 C 11.050781 4.0376687 11.704519 4.6914063 12.5 4.6914063 C 13.295481 4.6914063 13.949219 4.0376687 13.949219 3.2421875 C 13.949219 2.4467063 13.295481 1.7929688 12.5 1.7929688 z " /><path
       id="path29"
       style="stroke:none;stroke-width:0.89952756;fill:#767676;stroke-dasharray:none;color:#000000;fill-opacity:1"
       d="M 13.738682 2.4931159 C 13.483437 2.0747352 13.021596 1.7922098 12.499562 1.7922097 C 11.704081 1.7922097 11.050051 2.4470389 11.050051 3.2425201 C 11.050051 4.0380013 11.70488 4.6920315 12.500361 4.6920314 C 13.295842 4.6920314 13.949872 4.0372022 13.949872 3.241721 C 13.949872 2.9682743 13.872381 2.7122677 13.738682 2.4931159 z "
       transform="rotate(-60,12.5,12.5)" /><path
       id="path23"
       style="stroke:none;stroke-width:0.89952756;fill:#ececec;stroke-dasharray:none;color:#000000;fill-opacity:1"
       d="M 11.750957 2.0034002 C 11.332576 2.2586451 11.050051 2.7204856 11.050051 3.2425201 C 11.050051 4.0380013 11.70488 4.6920315 12.500361 4.6920314 C 13.295842 4.6920314 13.949872 4.0372022 13.949872 3.241721 C 13.949872 2.4462398 13.295043 1.7922098 12.499562 1.7922097 C 12.226115 1.7922097 11.970109 1.8697005 11.750957 2.0034002 z "
       transform="rotate(30,12.5,12.5)" /><path
       id="path27"
       style="stroke:none;stroke-width:0.89952756;fill:#b1b1b1;stroke-dasharray:none;color:#000000;fill-opacity:1"
       d="M 11.751034 20.519159 C 11.332653 20.774404 11.050128 21.236245 11.050128 21.758279 C 11.050128 22.55376 11.704957 23.20779 12.500438 23.20779 C 13.295919 23.20779 13.949949 22.552961 13.949949 21.75748 C 13.949949 20.962 13.29512 20.307969 12.499639 20.307969 C 12.226192 20.307969 11.970186 20.385459 11.751034 20.519159 z "
       transform="rotate(30,12.5,12.5)" /><path
       id="path21"
       style="stroke:none;stroke-width:0.89952756;fill:#8b8b8b;stroke-dasharray:none;color:#000000;fill-opacity:1"
       d="M 13.949219 3.2421875 C 13.949219 2.4467063 13.295481 1.7929688 12.5 1.7929688 C 11.704519 1.7929688 11.050781 2.4467063 11.050781 3.2421875 C 11.050781 4.0376687 11.704519 4.6914063 12.5 4.6914063 C 13.295481 4.6914063 13.949219 4.0376687 13.949219 3.2421875 z "
       transform="rotate(-90,12.5,12.5)" /><path
       id="path25"
       style="stroke:none;stroke-width:0.89952756;fill:#dadada;stroke-dasharray:none;color:#000000;fill-opacity:1"
       d="M 13.949219 21.757813 C 13.949219 20.962332 13.295481 20.308594 12.5 20.308594 C 11.704519 20.308594 11.050781 20.962332 11.050781 21.757813 C 11.050781 22.553294 11.704519 23.207031 12.5 23.207031 C 13.295481 23.207031 13.949219 22.553294 13.949219 21.757813 z "
       transform="rotate(-90,12.5,12.5)" /><path
       id="path39"
       style="stroke:none;stroke-width:0.89952756;fill:#c2c2c2;stroke-dasharray:none;color:#000000;fill-opacity:1"
       d="M -11.811926 20.484003 C -12.017205 20.371945 -12.251051 20.307969 -12.499639 20.307969 C -13.29512 20.307969 -13.949949 20.962 -13.949949 21.75748 C -13.949949 22.552961 -13.295919 23.20779 -12.500438 23.20779 C -11.704957 23.20779 -11.050128 22.55376 -11.050128 21.758279 C -11.050128 21.211386 -11.360314 20.730531 -11.811926 20.484003 z "
       transform="rotate(-30,0,-34.150635)" /><g
       id="g16"
       transform="rotate(60,12.5,12.5)"
       style="stroke:#000000;stroke-width:0.89952756;fill:#000000;stroke-dasharray:none" /></g></svg>
